{"title":"Central Intelligence 2016 HD-TS x264 AC3-Garmin","uid":15051476,"size":2019377849,"categoryP":"video","categoryS":"movies","magnet":"?xt=urn:btih:55899e3b42eca84730d1b34f97f29ae55c85ed69&amp;dn=Central+Intelligence+2016+HD-TS+x264+AC3-Garmin&amp;tr=udp%3A%2F%2Ftracker.leechers-paradise.org%3A6969&amp;tr=udp%3A%2F%2Fzer0day.ch%3A1337&amp;tr=udp%3A%2F%2Fopen.demonii.com%3A1337&amp;tr=udp%3A%2F%2Ftracker.coppersurfer.tk%3A6969&amp;tr=udp%3A%2F%2Fexodus.desync.com%3A6969","seeders":7,"leechers":5,"uploader":"makintos13","files":3,"time":1466673348,"description":"Central Intelligence 2016 HD-TS x264 AC3-Garmin\r\n\r\n\r\nScreens:\r\n\r\n \nhttps://imgmak.com/TZk\r\n \nhttps://imgmak.com/TZm\r\n \nhttps://imgmak.com/TZu\r\n \nhttps://imgmak.com/TZ5\r\n \nhttps://imgmak.com/TZ1\r\n\r\n\r\n\r\n\r\nComplete name                            : Central Intelligence 2016 HD-TS x264.mkv\r\nFormat                                   : Matroska\r\nFormat version                           : Version 4 / Version 2\r\nFile size                                : 1.83 GiB\r\nDuration                                 : 1h 41mn\r\nOverall bit rate                         : 2 582 Kbps\r\n\r\nVideo\r\nID                                       : 1\r\nFormat                                   : AVC\r\nFormat/Info                              : Advanced Video Codec\r\nFormat profile                           :   \r\nFormat settings, CABAC                   : Yes\r\nFormat settings, ReFrames                : 4 frames\r\nCodec ID                                 : V_MPEG4/ISO/AVC\r\nDuration                                 : 1h 41mn\r\nBit rate                                 : 2 275 Kbps\r\nWidth                                    : 1 280 pixels\r\nHeight                                   : 540 pixels\r\nDisplay aspect ratio                     : 2.40:1\r\nFrame rate mode                          : Constant\r\nFrame rate                               : 30.000 fps\r\nColor space                              : YUV\r\nChroma subsampling                       : 4:2:0\r\nBit depth                                : 8 bits\r\nScan type                                : Progressive\r\nBits/(Pixel*Frame)                       : 0.110\r\nStream size                              : 1.61 GiB (88%)\r\nWriting library                          : x264 core 148 r2694 3b70645\r\nEncoding settings                        : opencl=1 / cabac=1 / ref=3 / deblock=1:-1:-1 / analyse=0x3:0x113 / me=hex / subme=7 / psy=1 / psy_rd=1.00:0.15 / mixed_ref=1 / me_range=16 / chroma_me=1 / trellis=1 / 8x8dct=1 / cqm=0 / deadzone=21,11 / fast_pskip=1 / chroma_qp_offset=-3 / threads=3 / lookahead_threads=1 / sliced_threads=0 / nr=0 / decimate=1 / interlaced=0 / bluray_compat=0 / constrained_intra=0 / bframes=3 / b_pyramid=2 / b_adapt=1 / b_bias=0 / direct=1 / weightb=1 / open_gop=0 / weightp=2 / keyint=250 / keyint_min=25 / scenecut=40 / intra_refresh=0 / rc_lookahead=40 / rc=crf / mbtree=1 / crf=21.0 / qcomp=0.60 / qpmin=0 / qpmax=69 / qpstep=4 / vbv_maxrate=62500 / vbv_bufsize=78125 / crf_max=0.0 / nal_hrd=none / filler=0 / ip_ratio=1.40 / aq=1:1.00\r\n\r\nDefault                                  : Yes\r\nForced                                   : Yes\r\nColor range                              : Limited\r\nMatrix coefficients                      : BT.601\r\nID                                       : 2\r\nFormat                                   : AC-3\r\nFormat/Info                              : Audio Coding 3\r\nMode extension                           : CM (complete main)\r\nFormat settings, Endianness              : Big\r\nCodec ID                                 : A_AC3\r\nDuration                                 : 1h 41mn\r\nBit rate mode                            : Constant\r\nBit rate                                 : 256 Kbps\r\nChannel(s)                               : 2 channels\r\nChannel positions                        : Front: L R\r\nSampling rate                            : 48.0 KHz\r\nCompression mode                         : Lossy\r\nDelay relative to video                  : 6ms\r\nStream size                              : 186 MiB (10%)\r\nDefault                                  : Yes\r\nForced                                   : No\r\nSource Video + Source Audio              : Central Intelligence 2016 HD-TS x264 AC3-CPG\r\nSample Included                          : Yes\r\n\r\nHere is our version of Central Inteligence. We took CPG's version and upscaled it to a\r\n720p. Thanks to them for bringing it to us. We adjusted a few things since we were \r\ngoing to upscale it. Like brightness colors and black and white levels. Hope you all\r\nenjoy. As always check sample screens always look better","torrent":{"xt":"urn:btih:55899e3b42eca84730d1b34f97f29ae55c85ed69","amp;dn":"Central+Intelligence+2016+HD-TS+x264+AC3-Garmin","amp;tr":["udp%3A%2F%2Ftracker.leechers-paradise.org%3A6969","udp%3A%2F%2Fzer0day.ch%3A1337","udp%3A%2F%2Fopen.demonii.com%3A1337","udp%3A%2F%2Ftracker.coppersurfer.tk%3A6969","udp%3A%2F%2Fexodus.desync.com%3A6969"],"infoHash":"55899e3b42eca84730d1b34f97f29ae55c85ed69","infoHashBuffer":{"type":"Buffer","data":[85,137,158,59,66,236,168,71,48,209,179,79,151,242,154,229,92,133,237,105]},"announce":[],"urlList":[]}}